PathFileType	4	(X/Y/Z)	c:/Users/goper/Files/vsCode/490R/osim_files/A01/A01_Fast_04.trc
DataRate	CameraRate	NumFrames	NumMarkers	Units                	OrigDataRate	OrigDataStartFrame	OrigNumFrames
120.00	120.00	7	36	mm	120.0	990	1131
                Frame#	Time	Mobility_markerset:LPSIS			Mobility_markerset:LASIS			Mobility_markerset:LTH1			Mobility_markerset:LTH2			Mobility_markerset:LTH3			Mobility_markerset:LTH4			Mobility_markerset:LLFE			Mobility_markerset:LMFE			Mobility_markerset:LSH1			Mobility_markerset:LSH2			Mobility_markerset:LSH3			Mobility_markerset:LSH4			Mobility_markerset:LLMAL			Mobility_markerset:LMMAL			Mobility_markerset:LCAL			Mobility_markerset:LMTP5			Mobility_markerset:LTOE			Mobility_markerset:LMTP1			Mobility_markerset:RPSIS			Mobility_markerset:RASIS			Mobility_markerset:RTH1			Mobility_markerset:RTH2			Mobility_markerset:RTH3			Mobility_markerset:RTH4			Mobility_markerset:RLFE			Mobility_markerset:RMFE			Mobility_markerset:RSH1			Mobility_markerset:RSH2			Mobility_markerset:RSH3			Mobility_markerset:RSH4			Mobility_markerset:RLMAL			Mobility_markerset:RMMAL			Mobility_markerset:RCAL			Mobility_markerset:RMTP1			Mobility_markerset:RTOE			Mobility_markerset:RMTP5		
		X1	Y1	Z1	X2	Y2	Z2	X3	Y3	Z3	X4	Y4	Z4	X5	Y5	Z5	X6	Y6	Z6	X7	Y7	Z7	X8	Y8	Z8	X9	Y9	Z9	X10	Y10	Z10	X11	Y11	Z11	X12	Y12	Z12	X13	Y13	Z13	X14	Y14	Z14	X15	Y15	Z15	X16	Y16	Z16	X17	Y17	Z17	X18	Y18	Z18	X19	Y19	Z19	X20	Y20	Z20	X21	Y21	Z21	X22	Y22	Z22	X23	Y23	Z23	X24	Y24	Z24	X25	Y25	Z25	X26	Y26	Z26	X27	Y27	Z27	X28	Y28	Z28	X29	Y29	Z29	X30	Y30	Z30	X31	Y31	Z31	X32	Y32	Z32	X33	Y33	Z33	X34	Y34	Z34	X35	Y35	Z35	X36	Y36	Z36

990	8.24167	0.00000	0.00000	0.00000	-3798.66870	1017.79681	1058.11462	-3832.42163	648.03314	967.78510	-3831.63281	692.72650	952.03857	0.00000	0.00000	0.00000	0.00000	0.00000	0.00000	0.00000	0.00000	0.00000	0.00000	0.00000	0.00000	-4016.76831	1067.38611	933.77832	0.00000	0.00000	0.00000	0.00000	0.00000	0.00000	0.00000	0.00000	0.00000	-3943.12549	90.76178	1028.41687	-4004.14722	94.99564	1081.85522	-4027.66309	62.34428	1007.26886	-3828.64795	41.38343	1111.62280	-3852.85498	62.58462	1178.61694	-3886.92114	50.26638	1191.20886	-4093.07031	1061.96570	999.91815	-3996.08032	984.87689	1212.70056	-4193.63623	681.58484	1131.41003	-4188.82471	638.17957	1136.57593	-4158.79883	683.40424	1183.88928	-4163.30225	642.21997	1181.27051	-4163.56348	495.77426	1137.24915	0.00000	0.00000	0.00000	-4246.00830	404.47101	949.88867	-4261.72217	369.92807	925.57404	-4249.29102	365.80222	996.53552	-4264.48047	335.76028	966.87244	-4290.51416	228.20435	832.36267	0.00000	0.00000	0.00000	-4243.64307	233.75217	772.06543	0.00000	0.00000	0.00000	-4301.05615	70.69571	917.55035	-4363.08252	102.18330	866.60895
991	8.25000	0.00000	0.00000	0.00000	-3797.41602	1016.62128	1062.31580	-3830.14941	647.93921	969.33801	-3829.05273	692.67334	953.75061	0.00000	0.00000	0.00000	0.00000	0.00000	0.00000	0.00000	0.00000	0.00000	0.00000	0.00000	0.00000	-4012.54126	1067.29907	937.56982	0.00000	0.00000	0.00000	0.00000	0.00000	0.00000	0.00000	0.00000	0.00000	-3942.99341	90.81422	1028.45251	-4004.03760	95.12277	1081.95972	-4027.47778	62.49058	1007.31171	-3828.56836	41.32656	1111.60278	-3852.78247	62.48354	1178.65454	-3886.85669	50.22913	1191.24377	-4088.87915	1061.53723	1003.84613	-3989.98291	985.66278	1216.56995	-4187.08984	679.92169	1141.33496	-4182.07764	637.17542	1147.24915	-4151.95605	683.34509	1193.55640	-4154.26074	641.00391	1191.37817	-4155.82568	495.21796	1149.50208	0.00000	0.00000	0.00000	-4239.82275	407.07245	961.85266	-4255.89160	373.17395	936.99011	-4242.86377	367.51016	1007.75085	-4258.42480	338.17032	977.59460	-4285.64844	234.01814	841.31555	0.00000	0.00000	0.00000	-4238.52441	240.76480	781.09271	0.00000	0.00000	0.00000	-4297.83301	71.93501	923.59882	-4359.39355	109.50264	873.42535
992	8.25833	0.00000	0.00000	0.00000	-3793.14233	1016.42548	1065.22461	-3827.90869	647.85352	970.85748	-3826.64917	692.61603	955.44214	0.00000	0.00000	0.00000	0.00000	0.00000	0.00000	0.00000	0.00000	0.00000	0.00000	0.00000	0.00000	-4008.51172	1067.21643	941.27765	0.00000	0.00000	0.00000	0.00000	0.00000	0.00000	0.00000	0.00000	0.00000	-3942.84375	90.92371	1028.47241	-4003.94409	95.23038	1082.07446	-4027.30762	62.63936	1007.36761	-3828.47778	41.25681	1111.64771	-3852.71484	62.38143	1178.67139	-3886.81543	50.21265	1191.30103	-4084.81372	1061.02686	1007.73743	-3985.06787	986.05939	1220.26697	-4180.54639	679.20453	1151.41077	-4175.15625	636.39032	1157.93945	-4144.85645	683.38989	1203.22278	-4147.06104	641.06030	1201.73767	-4147.84375	494.72043	1161.71692	0.00000	0.00000	0.00000	-4233.43799	409.68771	973.96222	-4249.85449	376.34485	948.55341	-4236.10107	369.17004	1019.07965	-4252.02393	340.53619	988.48816	-4280.45068	239.70180	850.56757	0.00000	0.00000	0.00000	-4233.67480	247.44624	789.45868	0.00000	0.00000	0.00000	-4294.56592	72.84436	929.97467	-4355.08057	116.68700	881.22900
993	8.26667	0.00000	0.00000	0.00000	-3788.59033	1015.98474	1067.90796	-3825.66797	647.73572	972.32220	-3824.35815	692.56671	957.12488	0.00000	0.00000	0.00000	0.00000	0.00000	0.00000	0.00000	0.00000	0.00000	0.00000	0.00000	0.00000	-4004.58643	1067.09192	944.95715	0.00000	0.00000	0.00000	0.00000	0.00000	0.00000	0.00000	0.00000	0.00000	-3942.70264	91.03079	1028.52063	-4003.85767	95.32817	1082.19958	-4027.13257	62.83457	1007.41827	-3828.39624	41.22212	1111.63159	-3852.65845	62.29721	1178.68115	-3886.79492	50.20571	1191.34204	-4080.91724	1060.50928	1011.58081	-3980.49365	986.39398	1223.85376	-4173.78809	678.69489	1161.39380	-4168.11768	635.82428	1168.47437	-4137.71826	683.64893	1212.84631	-4139.67041	641.29205	1212.00171	-4139.59180	494.29721	1173.90320	0.00000	0.00000	0.00000	-4226.83984	412.23633	986.18604	-4243.54639	379.44928	960.28046	-4229.07812	370.79782	1030.44983	-4245.33496	342.83984	999.45337	-4275.05908	245.18108	860.09283	0.00000	0.00000	0.00000	-4228.49414	253.40950	799.01245	0.00000	0.00000	0.00000	-4291.55322	73.12727	936.68469	-4350.25488	122.99087	890.04901
994	8.27500	0.00000	0.00000	0.00000	-3781.39551	1015.91516	1069.63037	-3823.55884	647.64899	973.85406	-3822.08936	692.54010	958.83105	0.00000	0.00000	0.00000	0.00000	0.00000	0.00000	0.00000	0.00000	0.00000	0.00000	0.00000	0.00000	-4000.77368	1066.91113	948.61115	0.00000	0.00000	0.00000	0.00000	0.00000	0.00000	0.00000	0.00000	0.00000	-3942.55444	91.10795	1028.59924	-4003.75220	95.43151	1082.32861	-4026.92725	63.00982	1007.49060	-3828.30859	41.19909	1111.64160	-3852.60449	62.19964	1178.73242	-3886.79004	50.19620	1191.34082	-4077.10229	1059.97839	1015.43909	-3975.05151	986.81738	1227.60876	-4166.86865	678.30579	1171.26917	-4160.96484	635.50964	1178.92688	-4130.47168	684.09399	1222.39490	-4132.25342	641.69476	1222.16260	-4131.14160	494.02844	1185.95667	0.00000	0.00000	0.00000	-4220.00391	414.77594	998.40887	-4236.98535	382.44507	972.06635	-4221.80225	372.54993	1041.90747	-4238.37256	345.15430	1010.57800	-4269.75537	250.14638	870.08594	0.00000	0.00000	0.00000	-4224.70020	259.04675	808.03491	0.00000	0.00000	0.00000	-4287.33447	73.92910	943.80963	-4344.61963	127.20415	899.85516
995	8.28333	0.00000	0.00000	0.00000	-3776.30884	1015.80939	1072.04138	-3821.53247	647.60162	975.38916	-3819.91187	692.57947	960.50452	0.00000	0.00000	0.00000	0.00000	0.00000	0.00000	0.00000	0.00000	0.00000	0.00000	0.00000	0.00000	-3997.19263	1066.80042	952.24829	0.00000	0.00000	0.00000	0.00000	0.00000	0.00000	0.00000	0.00000	0.00000	-3942.41016	91.19750	1028.64331	-4003.68701	95.53746	1082.43311	-4026.75806	63.15294	1007.57458	-3828.22876	41.14725	1111.65295	-3852.56104	62.11467	1178.79358	-3886.78394	50.16851	1191.41675	-4073.36792	1059.48438	1019.32416	-3970.27759	986.84625	1231.29712	-4159.84473	678.05481	1181.02100	-4153.63525	635.29041	1189.18250	-4123.09668	684.61157	1231.83093	-4124.72314	642.22742	1232.17761	-4122.42529	493.98117	1197.86658	0.00000	0.00000	0.00000	-4212.92822	417.24039	1010.68207	-4230.27881	385.40570	984.02448	-4214.26123	374.27866	1053.49658	-4231.18311	347.46362	1021.90851	-4264.86133	254.22931	880.88129	0.00000	0.00000	0.00000	-4222.15967	264.65323	817.01410	0.00000	0.00000	0.00000	-4278.81006	78.33442	952.50641	-4337.76123	129.80809	911.00085
996	8.29167	0.00000	0.00000	0.00000	-3772.10059	1015.12860	1074.68567	-3819.67212	647.58423	976.83832	-3817.94141	692.57495	962.12189	0.00000	0.00000	0.00000	0.00000	0.00000	0.00000	0.00000	0.00000	0.00000	0.00000	0.00000	0.00000	-3993.72388	1066.72974	955.87866	0.00000	0.00000	0.00000	0.00000	0.00000	0.00000	0.00000	0.00000	0.00000	-3942.27222	91.28882	1028.70056	-4003.66968	95.68282	1082.57837	-4026.65723	63.31378	1007.65509	-3828.14258	41.04436	1111.64893	-3852.55591	61.99474	1178.83655	-3886.81152	50.15018	1191.43359	-4069.78809	1059.12939	1023.23395	-3966.10010	986.86353	1234.88879	-4152.64941	677.81427	1190.58594	-4146.12549	635.17157	1199.30164	-4115.59570	685.18311	1241.08142	-4116.92773	642.78693	1242.03979	-4113.49805	494.14761	1209.51807	0.00000	0.00000	0.00000	-4205.67725	419.49719	1023.08167	-4223.35205	388.05118	996.16364	-4206.41748	375.98425	1065.26965	-4223.74512	349.58682	1033.55542	-4259.89355	257.62021	891.97101	0.00000	0.00000	0.00000	-4219.17188	269.21613	827.46033	0.00000	0.00000	0.00000	-4267.57227	81.45619	963.49280	-4329.27393	131.36232	923.36243
